<?xml version="1.0" standalone="no"?><!DOCTYPE svg PUBLIC "-//W3C//DTD SVG 1.1//EN" "http://www.w3.org/Graphics/SVG/1.1/DTD/svg11.dtd"><svg t="1505621115575" class="icon" style="" viewBox="0 0 1024 1024" version="1.1" xmlns="http://www.w3.org/2000/svg" p-id="2521" xmlns:xlink="http://www.w3.org/1999/xlink" width="200" height="200"><defs><style type="text/css"></style></defs><path d="M106.1 817.8c-32.5 31-33.6 82.5-2.6 115s82.5 33.6 115 2.6c32.5-31.1 33.6-82.5 2.6-115-31.1-32.5-82.5-33.6-115-2.6zM117 138.1v0.4s120.4-6.1 263.1 39.6c57.8 18.5 119.4 45.6 178.4 84.9l82.3-28.7C553.5 165.2 467.4 124.1 388.5 100 281 67.1 185.1 65 118.2 65h-1.1c-20 0.6-36 16.7-36 36.5-0.1 19.9 15.9 36 35.9 36.6zM906.2 630.3c-21.5-75.9-57.2-158-110-233.8L723.1 422c58 78.4 91.7 157.1 111.5 229.7 30.1 110.9 28.2 207.3 33.1 265.7-0.1 1.2-0.2 2.3-0.2 3.5 0 20.5 16.9 37.2 37.8 37.2s37.7-16.7 37.7-37.2c0-1.6-0.1-3.2-0.3-4.7 0.9-27.4 2.3-148.8-36.5-285.9zM136.2 558.9c-20 7-41.8-3.6-48.8-23.5-7-20 3.6-41.9 23.5-48.8l776.8-270.8c20-7 41.8 3.6 48.8 23.5 7 20-3.6 41.9-23.5 48.8L136.2 558.9zM405.5 532.7L318.7 563c25.1 15.6 49.6 34.8 72.2 58.4 102.2 106.9 111.4 226 111.6 294.4-0.3 2-0.5 4-0.5 6 0 20.5 16.9 37.2 37.7 37.2 20.9 0 37.8-16.7 37.8-37.2h0.1c1.9-71.1-9.9-227.6-133.2-353.5-12.7-13.1-25.8-24.8-38.9-35.6z" fill="#CCCCCC" p-id="2522"></path></svg>